<?xml version="1.0" encoding="UTF-8"?>
<svg width="32px" height="32px" viewBox="0 0 32 32" version="1.1" xmlns="http://www.w3.org/2000/svg" xmlns:xlink="http://www.w3.org/1999/xlink">
    <title>Bitmap</title>
    <defs>
        <circle id="path-1" cx="15" cy="15" r="15"></circle>
    </defs>
    <g id="Pro---Projects" stroke="none" stroke-width="1" fill="none" fill-rule="evenodd">
        <g id="25---Contractor--info-tab--Place-bid" transform="translate(-23.000000, -558.000000)">
            <g id="Elements-/-Attachment-without-border-Copy" transform="translate(24.000000, 557.000000)">
                <g id="Group-2" transform="translate(0.000000, 2.000000)">
                    <mask id="mask-2" fill="white">
                        <use xlink:href="#path-1"></use>
                    </mask>
                    <circle stroke="#F1F1F1" stroke-width="0.5" cx="15" cy="15" r="15.25"></circle>
                    <g id="attachment" mask="url(#mask-2)" stroke="#00193D">
                        <g transform="translate(10.000000, 8.000000)">
                            <path d="M1.19147074,-0.12 L7.49438362,-0.12 L10.7556777,2.94984854 L10.8434043,12.8333242 C10.8434043,13.1884237 10.6962027,13.510494 10.4580463,13.7436943 C10.2547022,13.9428067 9.98502605,14.0770531 9.68456492,14.1113456 L9.53193351,14.12 L1.19149867,14.12 C0.830130178,14.12 0.502606701,13.9759949 0.265369592,13.7437057 C0.0612279406,13.5438217 -0.0760852739,13.2786462 -0.111151465,12.983348 L-0.12,12.8333516 L-0.12,1.16667578 C-0.12,0.811576291 0.0272015176,0.489506002 0.265357925,0.256305721 C0.468702031,0.0571932834 0.738378201,-0.0770530562 1.03883933,-0.111345634 L1.19147074,-0.12 L1.19147074,-0.12 Z M7.02893617,0.714507716 L0.721220886,1.27598277 L1.3054306,13.2889559 L10.0076689,12.720902 L10.0076689,3.62 L8.34043484,3.62 L8.18779933,3.61134581 C7.88733079,3.57705398 7.61765186,3.44281075 7.41430576,3.2437057 C7.1761405,3.01050769 7.02893617,2.68844067 7.02893617,2.33335156 L7.02893617,2.33335156 L7.02893617,0.714507716 Z M7.99990289,1.41363854 L8.42882937,2.79667578 L9.41236646,2.79667578 L7.99990289,1.41363854 Z" id="Combined-Shape" stroke-width="0.24" fill="#00193D" fill-rule="evenodd"></path>
                            <line x1="2.78723404" y1="6.06382979" x2="5.53723404" y2="6.06382979" id="Line" stroke-width="0.8" fill="#00193D" fill-rule="evenodd"></line>
                            <line x1="2.78723404" y1="8.14893617" x2="6.78723404" y2="8.14893617" id="Line-Copy" stroke-width="0.8" fill="none"></line>
                            <line x1="2.78723404" y1="10.5319149" x2="8.78723404" y2="10.5319149" id="Line-Copy-2" stroke-width="0.8" fill="#00193D" fill-rule="evenodd"></line>
                        </g>
                    </g>
                </g>
            </g>
        </g>
    </g>
</svg>