<svg width="78" height="35" viewBox="0 0 78 35" fill="none" xmlns="http://www.w3.org/2000/svg">
<path d="M0 17.5C0 7.83502 7.83502 0 17.5 0H72C75.3137 0 78 2.68629 78 6V15C78 26.0457 69.0457 35 58 35H17.5C7.83502 35 0 27.165 0 17.5V17.5Z" fill="#146063"/>
<path d="M38.5879 16.2031V17.5635H33.3037V16.2031H38.5879ZM33.7275 12.0469V22H32.0117V12.0469H33.7275ZM39.9072 12.0469V22H38.1982V12.0469H39.9072ZM45.0479 22.1367C44.501 22.1367 44.0065 22.0479 43.5645 21.8701C43.127 21.6878 42.7533 21.4349 42.4434 21.1113C42.138 20.7878 41.9033 20.4072 41.7393 19.9697C41.5752 19.5322 41.4932 19.0605 41.4932 18.5547V18.2812C41.4932 17.7025 41.5775 17.1784 41.7461 16.709C41.9147 16.2396 42.1494 15.8385 42.4502 15.5059C42.751 15.1686 43.1064 14.9111 43.5166 14.7334C43.9268 14.5557 44.3711 14.4668 44.8496 14.4668C45.3783 14.4668 45.8408 14.5557 46.2373 14.7334C46.6338 14.9111 46.9619 15.1618 47.2217 15.4854C47.486 15.8044 47.682 16.1849 47.8096 16.627C47.9417 17.069 48.0078 17.5566 48.0078 18.0898V18.7939H42.293V17.6113H46.3809V17.4814C46.3717 17.1852 46.3125 16.9072 46.2031 16.6475C46.0983 16.3877 45.9365 16.1781 45.7178 16.0186C45.499 15.859 45.2074 15.7793 44.8428 15.7793C44.5693 15.7793 44.3255 15.8385 44.1113 15.957C43.9017 16.071 43.7262 16.2373 43.585 16.4561C43.4437 16.6748 43.3343 16.9391 43.2568 17.249C43.1839 17.5544 43.1475 17.8984 43.1475 18.2812V18.5547C43.1475 18.8783 43.1908 19.179 43.2773 19.457C43.3685 19.7305 43.5007 19.9697 43.6738 20.1748C43.847 20.3799 44.0566 20.5417 44.3027 20.6602C44.5488 20.7741 44.8291 20.8311 45.1436 20.8311C45.54 20.8311 45.8932 20.7513 46.2031 20.5918C46.513 20.4323 46.7819 20.2067 47.0098 19.915L47.8779 20.7559C47.7184 20.9883 47.5111 21.2116 47.2559 21.4258C47.0007 21.6354 46.6885 21.8063 46.3193 21.9385C45.9548 22.0706 45.5309 22.1367 45.0479 22.1367ZM51.0566 11.5V22H49.4023V11.5H51.0566ZM54.5156 16.0254V24.8438H52.8682V14.6035H54.3857L54.5156 16.0254ZM59.335 18.2334V18.377C59.335 18.9147 59.2712 19.4137 59.1436 19.874C59.0205 20.3298 58.8359 20.7285 58.5898 21.0703C58.3483 21.4076 58.0498 21.6696 57.6943 21.8564C57.3389 22.0433 56.9287 22.1367 56.4639 22.1367C56.0036 22.1367 55.6003 22.0524 55.2539 21.8838C54.9121 21.7106 54.6227 21.4668 54.3857 21.1523C54.1488 20.8379 53.9574 20.4688 53.8115 20.0449C53.6702 19.6165 53.57 19.1471 53.5107 18.6367V18.083C53.57 17.5407 53.6702 17.0485 53.8115 16.6064C53.9574 16.1644 54.1488 15.7839 54.3857 15.4648C54.6227 15.1458 54.9121 14.8997 55.2539 14.7266C55.5957 14.5534 55.9945 14.4668 56.4502 14.4668C56.915 14.4668 57.3275 14.5579 57.6875 14.7402C58.0475 14.918 58.3506 15.1732 58.5967 15.5059C58.8428 15.834 59.0273 16.2305 59.1504 16.6953C59.2734 17.1556 59.335 17.6683 59.335 18.2334ZM57.6875 18.377V18.2334C57.6875 17.8916 57.6556 17.5749 57.5918 17.2832C57.528 16.987 57.4277 16.7272 57.291 16.5039C57.1543 16.2806 56.9788 16.1074 56.7646 15.9844C56.555 15.8568 56.3021 15.793 56.0059 15.793C55.7142 15.793 55.4635 15.8431 55.2539 15.9434C55.0443 16.0391 54.8688 16.1735 54.7275 16.3467C54.5863 16.5199 54.4769 16.7227 54.3994 16.9551C54.3219 17.1829 54.2673 17.4313 54.2354 17.7002V19.0264C54.29 19.3545 54.3835 19.6553 54.5156 19.9287C54.6478 20.2021 54.8346 20.4209 55.0762 20.585C55.3223 20.7445 55.6367 20.8242 56.0195 20.8242C56.3158 20.8242 56.5687 20.7604 56.7783 20.6328C56.988 20.5052 57.1589 20.3298 57.291 20.1064C57.4277 19.8786 57.528 19.6165 57.5918 19.3203C57.6556 19.0241 57.6875 18.7096 57.6875 18.377Z" fill="white"/>
<path d="M17.4512 19.4395H16.0508C16.0547 19.084 16.084 18.7793 16.1387 18.5254C16.1973 18.2715 16.293 18.043 16.4258 17.8398C16.5586 17.6328 16.7383 17.4219 16.9648 17.207C17.1445 17.0391 17.3047 16.8809 17.4453 16.7324C17.5898 16.5801 17.7031 16.4219 17.7852 16.2578C17.8672 16.0898 17.9082 15.9004 17.9082 15.6895C17.9082 15.4512 17.8691 15.252 17.791 15.0918C17.7168 14.9316 17.6055 14.8105 17.457 14.7285C17.3125 14.6426 17.1309 14.5996 16.9121 14.5996C16.7324 14.5996 16.5625 14.6367 16.4023 14.7109C16.2422 14.7852 16.1133 14.9004 16.0156 15.0566C15.918 15.209 15.8652 15.4082 15.8574 15.6543H14.3047C14.3164 15.1426 14.4375 14.7168 14.668 14.377C14.8984 14.0332 15.209 13.7773 15.5996 13.6094C15.9902 13.4375 16.4277 13.3516 16.9121 13.3516C17.4473 13.3516 17.9043 13.4414 18.2832 13.6211C18.666 13.7969 18.957 14.0547 19.1562 14.3945C19.3594 14.7344 19.4609 15.1445 19.4609 15.625C19.4609 15.9688 19.3945 16.2773 19.2617 16.5508C19.1289 16.8203 18.9531 17.0723 18.7344 17.3066C18.5156 17.541 18.2793 17.7773 18.0254 18.0156C17.8027 18.2148 17.6523 18.4277 17.5742 18.6543C17.4961 18.8809 17.4551 19.1426 17.4512 19.4395ZM15.9043 21.2617C15.9043 21.0273 15.9824 20.832 16.1387 20.6758C16.2988 20.5195 16.5137 20.4414 16.7832 20.4414C17.0527 20.4414 17.2656 20.5195 17.4219 20.6758C17.582 20.832 17.6621 21.0273 17.6621 21.2617C17.6621 21.4883 17.582 21.6797 17.4219 21.8359C17.2656 21.9922 17.0527 22.0703 16.7832 22.0703C16.5137 22.0703 16.2988 21.9922 16.1387 21.8359C15.9824 21.6797 15.9043 21.4883 15.9043 21.2617Z" fill="white"/>
<path fill-rule="evenodd" clip-rule="evenodd" d="M17 24.3C20.7555 24.3 23.8 21.2555 23.8 17.5C23.8 13.7445 20.7555 10.7 17 10.7C13.2445 10.7 10.2 13.7445 10.2 17.5C10.2 21.2555 13.2445 24.3 17 24.3ZM17 25.5C21.4183 25.5 25 21.9183 25 17.5C25 13.0817 21.4183 9.5 17 9.5C12.5817 9.5 9 13.0817 9 17.5C9 21.9183 12.5817 25.5 17 25.5Z" fill="white"/>
</svg>
